<svg width="21" height="24" viewBox="0 0 21 24" fill="none" xmlns="http://www.w3.org/2000/svg">
<path d="M19.0098 0.00686232C18.695 0.00536753 18.385 0.091456 18.1098 0.256974C17.8347 0.422492 17.6035 0.661788 17.4386 0.951868L6.86693 18.3619L3.64569 13.5746C3.46663 13.2966 3.22761 13.0701 2.94934 12.9143C2.67108 12.7586 2.36197 12.6786 2.04867 12.6811C0.671828 12.6811 -0.657472 14.1435 0.357833 15.653L5.30658 23.0094C5.49538 23.3072 5.74687 23.5524 6.04034 23.7246C6.33382 23.8968 6.66089 23.9911 6.99469 24C7.31712 23.995 7.63312 23.9015 7.91294 23.7282C8.19277 23.5549 8.42725 23.3076 8.59444 23.0094C12.6394 16.3463 16.6834 9.68655 20.7265 3.03027C20.905 2.71728 20.9997 2.35682 21 1.9891C21.0003 1.62137 20.9062 1.26075 20.7283 0.947383C20.5504 0.634011 20.2956 0.380146 19.9921 0.214093C19.6887 0.0480391 19.3487 -0.023662 19.0098 0.00686232Z" fill="#019CA6"/>
</svg>
